<svg width="32" height="32" viewBox="0 0 32 32" fill="none" xmlns="http://www.w3.org/2000/svg">
<path fill-rule="evenodd" clip-rule="evenodd" d="M10.709 3.24369C12.0775 3.18069 12.5138 3.16669 15.9998 3.16669C19.4858 3.16669 19.9222 3.18185 21.2895 3.24369C22.6568 3.30552 23.5902 3.52369 24.4068 3.83985C25.262 4.16302 26.0378 4.66819 26.6795 5.32152C27.3328 5.96202 27.8368 6.73669 28.1588 7.59302C28.4762 8.40969 28.6932 9.34302 28.7562 10.708C28.8192 12.0789 28.8332 12.5152 28.8332 16C28.8332 19.486 28.818 19.9224 28.7562 21.2909C28.6943 22.6559 28.4762 23.5892 28.1588 24.4059C27.8368 25.2623 27.332 26.0382 26.6795 26.6797C26.0378 27.333 25.262 27.837 24.4068 28.159C23.5902 28.4764 22.6568 28.6933 21.2918 28.7563C19.9222 28.8193 19.4858 28.8334 15.9998 28.8334C12.5138 28.8334 12.0775 28.8182 10.709 28.7563C9.344 28.6945 8.41067 28.4764 7.594 28.159C6.73758 27.837 5.96163 27.3321 5.32017 26.6797C4.66728 26.0388 4.16204 25.2632 3.83967 24.407C3.5235 23.5904 3.3065 22.657 3.2435 21.292C3.1805 19.9212 3.1665 19.4849 3.1665 16C3.1665 12.514 3.18167 12.0777 3.2435 10.7104C3.30534 9.34302 3.5235 8.40969 3.83967 7.59302C4.16251 6.73678 4.66814 5.96122 5.32134 5.32035C5.96188 4.6676 6.73705 4.16237 7.59284 3.83985C8.4095 3.52369 9.34284 3.30669 10.7078 3.24369H10.709ZM21.1856 5.55369C19.8323 5.49186 19.4263 5.47903 15.9998 5.47903C12.5733 5.47903 12.1673 5.49186 10.814 5.55369C9.56214 5.61086 8.88314 5.81969 8.43048 5.99586C7.83198 6.22919 7.40381 6.50569 6.95464 6.95486C6.52886 7.36908 6.20119 7.87335 5.99564 8.43069C5.81948 8.88336 5.61064 9.56236 5.55348 10.8142C5.49164 12.1675 5.47881 12.5735 5.47881 16C5.47881 19.4265 5.49164 19.8325 5.55348 21.1859C5.61064 22.4377 5.81948 23.1167 5.99564 23.5694C6.20098 24.1259 6.52881 24.631 6.95464 25.0452C7.36881 25.471 7.87398 25.7989 8.43048 26.0042C8.88314 26.1804 9.56214 26.3892 10.814 26.4464C12.1673 26.5082 12.5721 26.521 15.9998 26.521C19.4275 26.521 19.8323 26.5082 21.1856 26.4464C22.4375 26.3892 23.1165 26.1804 23.5691 26.0042C24.1676 25.7709 24.5958 25.4944 25.045 25.0452C25.4708 24.631 25.7986 24.1259 26.004 23.5694C26.1801 23.1167 26.389 22.4377 26.4461 21.1859C26.508 19.8325 26.5208 19.4265 26.5208 16C26.5208 12.5735 26.508 12.1675 26.4461 10.8142C26.389 9.56236 26.1801 8.88336 26.004 8.43069C25.7706 7.83219 25.4941 7.40402 25.045 6.95486C24.6307 6.52911 24.1265 6.20144 23.5691 5.99586C23.1165 5.81969 22.4375 5.61086 21.1856 5.55369ZM14.3607 19.9562C16.2485 20.7421 18.4286 20.0829 19.5647 18.3826C20.7008 16.6824 20.4757 14.416 19.0273 12.9725C17.8027 11.7486 15.9614 11.3827 14.3618 12.0455C12.7623 12.7082 11.7193 14.269 11.719 16.0004C11.7188 17.7318 12.7613 19.293 14.3607 19.9562ZM11.3355 11.3357C13.0019 9.66928 15.4307 9.01848 17.7071 9.62842C19.9834 10.2384 21.7615 12.0164 22.3714 14.2928C22.9814 16.5691 22.3306 18.9979 20.6642 20.6644C18.0881 23.2404 13.9115 23.2404 11.3355 20.6644C8.75945 18.0883 8.75945 13.9117 11.3355 11.3357ZM24.0593 10.386C24.4725 9.99618 24.6412 9.41248 24.4995 8.86231C24.3578 8.31215 23.9281 7.88253 23.378 7.74083C22.8278 7.59913 22.2441 7.76776 21.8543 8.18102C21.2753 8.79479 21.2893 9.7577 21.886 10.3543C22.4826 10.951 23.4455 10.965 24.0593 10.386Z" fill="black"/>
</svg>
