<svg width="32" height="32" viewBox="0 0 32 32" fill="none" xmlns="http://www.w3.org/2000/svg">
<path fill-rule="evenodd" clip-rule="evenodd" d="M28.5237 8.10984C28.95 8.51391 29.2588 9.02594 29.4174 9.59151V9.59034C29.8355 11.7097 30.031 13.8669 30.0007 16.0268C30.0146 18.1777 29.8188 20.3248 29.4162 22.4377C29.2622 22.9953 28.9554 23.5075 28.5237 23.9193C28.0854 24.3358 27.5482 24.6338 26.9627 24.785C23.321 25.1919 19.6578 25.375 15.9937 25.3333C15.9937 25.3333 7.25889 25.3333 5.03872 24.757C4.44605 24.5995 3.90705 24.302 3.47422 23.8902C3.04139 23.4783 2.72989 22.9685 2.57005 22.4097C2.17689 20.2933 1.98672 18.1478 2.00072 16C1.98706 13.8502 2.1777 11.704 2.57005 9.59034C2.73339 9.02917 3.04605 8.51701 3.47772 8.10167C3.91704 7.68201 4.45328 7.37742 5.03872 7.21501C8.67572 6.80816 12.3343 6.62504 15.9937 6.66667C15.9937 6.66667 24.7717 6.66667 26.9627 7.24417C27.5482 7.39542 28.0854 7.69334 28.5237 8.10984ZM13.2031 12.0065V19.9947L20.5064 16.0012L13.2031 12.0065Z" fill="black"/>
</svg>
